<mxfile host="app.diagrams.net" agent="Mozilla/5.0 (Windows NT 10.0; Win64; x64) AppleWebKit/537.36 (KHTML, like Gecko) Chrome/132.0.0.0 Safari/537.36" version="26.0.14" pages="2">
  <diagram name="ER Diagram " id="Q-LITb63awly-VZH5yJE">
    <mxGraphModel dx="794" dy="1581" grid="1" gridSize="10" guides="1" tooltips="1" connect="1" arrows="1" fold="1" page="1" pageScale="1" pageWidth="827" pageHeight="1169" math="0" shadow="0">
      <root>
        <mxCell id="0" />
        <mxCell id="1" parent="0" />
        <mxCell id="iKP9hEX6rpxnVARJasha-4" value="BOOK" style="swimlane;fontStyle=0;childLayout=stackLayout;horizontal=1;startSize=30;horizontalStack=0;resizeParent=1;resizeParentMax=0;resizeLast=0;collapsible=1;marginBottom=0;whiteSpace=wrap;html=1;fillColor=#f5f5f5;strokeColor=#666666;fontColor=#333333;" vertex="1" parent="1">
          <mxGeometry x="160" y="50" width="150" height="90" as="geometry">
            <mxRectangle x="160" y="30" width="80" height="30" as="alternateBounds" />
          </mxGeometry>
        </mxCell>
        <mxCell id="iKP9hEX6rpxnVARJasha-5" value="ISBN&amp;nbsp; (VARCHAR(13),Unique)" style="text;strokeColor=default;fillColor=none;align=left;verticalAlign=middle;spacingLeft=4;spacingRight=4;overflow=hidden;points=[[0,0.5],[1,0.5]];portConstraint=eastwest;rotatable=0;whiteSpace=wrap;html=1;" vertex="1" parent="iKP9hEX6rpxnVARJasha-4">
          <mxGeometry y="30" width="150" height="30" as="geometry" />
        </mxCell>
        <mxCell id="iKP9hEX6rpxnVARJasha-6" value="Book ID (PK)" style="text;strokeColor=default;fillColor=none;align=left;verticalAlign=middle;spacingLeft=4;spacingRight=4;overflow=hidden;points=[[0,0.5],[1,0.5]];portConstraint=eastwest;rotatable=0;whiteSpace=wrap;html=1;" vertex="1" parent="iKP9hEX6rpxnVARJasha-4">
          <mxGeometry y="60" width="150" height="30" as="geometry" />
        </mxCell>
        <mxCell id="RN-kf8pmPx_RjaoWweyc-1" style="edgeStyle=orthogonalEdgeStyle;rounded=0;orthogonalLoop=1;jettySize=auto;html=1;exitX=1;exitY=0.5;exitDx=0;exitDy=0;" edge="1" parent="1" source="iKP9hEX6rpxnVARJasha-7">
          <mxGeometry relative="1" as="geometry">
            <mxPoint x="310" y="155" as="targetPoint" />
            <Array as="points">
              <mxPoint x="310" y="155" />
              <mxPoint x="310" y="160" />
              <mxPoint x="305" y="160" />
              <mxPoint x="305" y="155" />
            </Array>
          </mxGeometry>
        </mxCell>
        <mxCell id="iKP9hEX6rpxnVARJasha-7" value="Author" style="text;strokeColor=default;fillColor=none;align=left;verticalAlign=middle;spacingLeft=4;spacingRight=4;overflow=hidden;points=[[0,0.5],[1,0.5]];portConstraint=eastwest;rotatable=0;whiteSpace=wrap;html=1;" vertex="1" parent="1">
          <mxGeometry x="150" y="140" width="140" height="30" as="geometry" />
        </mxCell>
        <mxCell id="iKP9hEX6rpxnVARJasha-30" style="edgeStyle=orthogonalEdgeStyle;rounded=0;orthogonalLoop=1;jettySize=auto;html=1;exitX=1;exitY=0.5;exitDx=0;exitDy=0;entryX=0;entryY=0.5;entryDx=0;entryDy=0;" edge="1" parent="1" source="iKP9hEX6rpxnVARJasha-8" target="iKP9hEX6rpxnVARJasha-13">
          <mxGeometry relative="1" as="geometry" />
        </mxCell>
        <mxCell id="iKP9hEX6rpxnVARJasha-8" value="publisher ID (FK)" style="text;strokeColor=default;fillColor=none;align=left;verticalAlign=middle;spacingLeft=4;spacingRight=4;overflow=hidden;points=[[0,0.5],[1,0.5]];portConstraint=eastwest;rotatable=0;whiteSpace=wrap;html=1;" vertex="1" parent="1">
          <mxGeometry x="160" y="170" width="140" height="30" as="geometry" />
        </mxCell>
        <mxCell id="iKP9hEX6rpxnVARJasha-9" value="Publication year" style="text;strokeColor=default;fillColor=none;align=left;verticalAlign=middle;spacingLeft=4;spacingRight=4;overflow=hidden;points=[[0,0.5],[1,0.5]];portConstraint=eastwest;rotatable=0;whiteSpace=wrap;html=1;" vertex="1" parent="1">
          <mxGeometry x="160" y="200" width="140" height="30" as="geometry" />
        </mxCell>
        <mxCell id="iKP9hEX6rpxnVARJasha-10" value="Gener" style="text;strokeColor=default;fillColor=none;align=left;verticalAlign=middle;spacingLeft=4;spacingRight=4;overflow=hidden;points=[[0,0.5],[1,0.5]];portConstraint=eastwest;rotatable=0;whiteSpace=wrap;html=1;" vertex="1" parent="1">
          <mxGeometry x="160" y="230" width="140" height="30" as="geometry" />
        </mxCell>
        <mxCell id="iKP9hEX6rpxnVARJasha-11" value="LOANS" style="swimlane;fontStyle=0;childLayout=stackLayout;horizontal=1;startSize=30;horizontalStack=0;resizeParent=1;resizeParentMax=0;resizeLast=0;collapsible=1;marginBottom=0;whiteSpace=wrap;html=1;fillColor=#f5f5f5;fontColor=#333333;strokeColor=#666666;" vertex="1" parent="1">
          <mxGeometry x="580" y="270" width="140" height="120" as="geometry">
            <mxRectangle x="560" y="30" width="80" height="30" as="alternateBounds" />
          </mxGeometry>
        </mxCell>
        <mxCell id="iKP9hEX6rpxnVARJasha-12" value="Loan ID(PK)" style="text;strokeColor=default;fillColor=none;align=left;verticalAlign=middle;spacingLeft=4;spacingRight=4;overflow=hidden;points=[[0,0.5],[1,0.5]];portConstraint=eastwest;rotatable=0;whiteSpace=wrap;html=1;" vertex="1" parent="iKP9hEX6rpxnVARJasha-11">
          <mxGeometry y="30" width="140" height="30" as="geometry" />
        </mxCell>
        <mxCell id="iKP9hEX6rpxnVARJasha-13" value="Member ID (FK)" style="text;strokeColor=default;fillColor=none;align=left;verticalAlign=middle;spacingLeft=4;spacingRight=4;overflow=hidden;points=[[0,0.5],[1,0.5]];portConstraint=eastwest;rotatable=0;whiteSpace=wrap;html=1;" vertex="1" parent="iKP9hEX6rpxnVARJasha-11">
          <mxGeometry y="60" width="140" height="30" as="geometry" />
        </mxCell>
        <mxCell id="iKP9hEX6rpxnVARJasha-14" value="Book ID" style="text;strokeColor=default;fillColor=none;align=left;verticalAlign=middle;spacingLeft=4;spacingRight=4;overflow=hidden;points=[[0,0.5],[1,0.5]];portConstraint=eastwest;rotatable=0;whiteSpace=wrap;html=1;" vertex="1" parent="iKP9hEX6rpxnVARJasha-11">
          <mxGeometry y="90" width="140" height="30" as="geometry" />
        </mxCell>
        <mxCell id="iKP9hEX6rpxnVARJasha-15" value="Loan date" style="text;strokeColor=default;fillColor=none;align=left;verticalAlign=middle;spacingLeft=4;spacingRight=4;overflow=hidden;points=[[0,0.5],[1,0.5]];portConstraint=eastwest;rotatable=0;whiteSpace=wrap;html=1;" vertex="1" parent="1">
          <mxGeometry x="580" y="390" width="140" height="30" as="geometry" />
        </mxCell>
        <mxCell id="iKP9hEX6rpxnVARJasha-16" value="Due date" style="text;strokeColor=default;fillColor=none;align=left;verticalAlign=middle;spacingLeft=4;spacingRight=4;overflow=hidden;points=[[0,0.5],[1,0.5]];portConstraint=eastwest;rotatable=0;whiteSpace=wrap;html=1;" vertex="1" parent="1">
          <mxGeometry x="580" y="420" width="140" height="30" as="geometry" />
        </mxCell>
        <mxCell id="iKP9hEX6rpxnVARJasha-17" value="MEMBER" style="swimlane;fontStyle=0;childLayout=stackLayout;horizontal=1;startSize=30;horizontalStack=0;resizeParent=1;resizeParentMax=0;resizeLast=0;collapsible=1;marginBottom=0;whiteSpace=wrap;html=1;fillColor=#f5f5f5;fontColor=#333333;strokeColor=#666666;" vertex="1" parent="1">
          <mxGeometry x="610" y="-10" width="140" height="150" as="geometry">
            <mxRectangle x="230" y="290" width="90" height="30" as="alternateBounds" />
          </mxGeometry>
        </mxCell>
        <mxCell id="iKP9hEX6rpxnVARJasha-18" value="Adress" style="text;strokeColor=default;fillColor=none;align=left;verticalAlign=middle;spacingLeft=4;spacingRight=4;overflow=hidden;points=[[0,0.5],[1,0.5]];portConstraint=eastwest;rotatable=0;whiteSpace=wrap;html=1;" vertex="1" parent="iKP9hEX6rpxnVARJasha-17">
          <mxGeometry y="30" width="140" height="30" as="geometry" />
        </mxCell>
        <mxCell id="iKP9hEX6rpxnVARJasha-19" value="Member ID(PK)" style="text;strokeColor=default;fillColor=none;align=left;verticalAlign=middle;spacingLeft=4;spacingRight=4;overflow=hidden;points=[[0,0.5],[1,0.5]];portConstraint=eastwest;rotatable=0;whiteSpace=wrap;html=1;" vertex="1" parent="iKP9hEX6rpxnVARJasha-17">
          <mxGeometry y="60" width="140" height="30" as="geometry" />
        </mxCell>
        <mxCell id="iKP9hEX6rpxnVARJasha-20" value="Name" style="text;strokeColor=default;fillColor=none;align=left;verticalAlign=middle;spacingLeft=4;spacingRight=4;overflow=hidden;points=[[0,0.5],[1,0.5]];portConstraint=eastwest;rotatable=0;whiteSpace=wrap;html=1;" vertex="1" parent="iKP9hEX6rpxnVARJasha-17">
          <mxGeometry y="90" width="140" height="30" as="geometry" />
        </mxCell>
        <mxCell id="iKP9hEX6rpxnVARJasha-22" value="Email" style="text;strokeColor=default;fillColor=none;align=left;verticalAlign=middle;spacingLeft=4;spacingRight=4;overflow=hidden;points=[[0,0.5],[1,0.5]];portConstraint=eastwest;rotatable=0;whiteSpace=wrap;html=1;" vertex="1" parent="iKP9hEX6rpxnVARJasha-17">
          <mxGeometry y="120" width="140" height="30" as="geometry" />
        </mxCell>
        <mxCell id="iKP9hEX6rpxnVARJasha-21" value="Phone" style="text;strokeColor=default;fillColor=none;align=left;verticalAlign=middle;spacingLeft=4;spacingRight=4;overflow=hidden;points=[[0,0.5],[1,0.5]];portConstraint=eastwest;rotatable=0;whiteSpace=wrap;html=1;" vertex="1" parent="1">
          <mxGeometry x="610" y="140" width="140" height="30" as="geometry" />
        </mxCell>
        <mxCell id="iKP9hEX6rpxnVARJasha-23" value="PUBLISHER&amp;nbsp;" style="swimlane;fontStyle=0;childLayout=stackLayout;horizontal=1;startSize=30;horizontalStack=0;resizeParent=1;resizeParentMax=0;resizeLast=0;collapsible=1;marginBottom=0;whiteSpace=wrap;html=1;fillColor=#f5f5f5;fontColor=#333333;strokeColor=#666666;" vertex="1" parent="1">
          <mxGeometry x="274" y="300" width="140" height="120" as="geometry">
            <mxRectangle x="540" y="290" width="110" height="30" as="alternateBounds" />
          </mxGeometry>
        </mxCell>
        <mxCell id="iKP9hEX6rpxnVARJasha-29" style="edgeStyle=orthogonalEdgeStyle;rounded=0;orthogonalLoop=1;jettySize=auto;html=1;exitX=0;exitY=0.5;exitDx=0;exitDy=0;" edge="1" parent="iKP9hEX6rpxnVARJasha-23" source="iKP9hEX6rpxnVARJasha-24">
          <mxGeometry relative="1" as="geometry">
            <mxPoint x="-100" y="-10" as="targetPoint" />
          </mxGeometry>
        </mxCell>
        <mxCell id="iKP9hEX6rpxnVARJasha-24" value="Adress" style="text;strokeColor=default;fillColor=none;align=left;verticalAlign=middle;spacingLeft=4;spacingRight=4;overflow=hidden;points=[[0,0.5],[1,0.5]];portConstraint=eastwest;rotatable=0;whiteSpace=wrap;html=1;" vertex="1" parent="iKP9hEX6rpxnVARJasha-23">
          <mxGeometry y="30" width="140" height="30" as="geometry" />
        </mxCell>
        <mxCell id="iKP9hEX6rpxnVARJasha-25" value="Publisher ID(PK)" style="text;strokeColor=default;fillColor=none;align=left;verticalAlign=middle;spacingLeft=4;spacingRight=4;overflow=hidden;points=[[0,0.5],[1,0.5]];portConstraint=eastwest;rotatable=0;whiteSpace=wrap;html=1;" vertex="1" parent="iKP9hEX6rpxnVARJasha-23">
          <mxGeometry y="60" width="140" height="30" as="geometry" />
        </mxCell>
        <mxCell id="iKP9hEX6rpxnVARJasha-26" value="Name" style="text;strokeColor=default;fillColor=none;align=left;verticalAlign=middle;spacingLeft=4;spacingRight=4;overflow=hidden;points=[[0,0.5],[1,0.5]];portConstraint=eastwest;rotatable=0;whiteSpace=wrap;html=1;" vertex="1" parent="iKP9hEX6rpxnVARJasha-23">
          <mxGeometry y="90" width="140" height="30" as="geometry" />
        </mxCell>
        <mxCell id="iKP9hEX6rpxnVARJasha-27" value="Title&amp;nbsp;" style="text;strokeColor=default;fillColor=none;align=left;verticalAlign=middle;spacingLeft=4;spacingRight=4;overflow=hidden;points=[[0,0.5],[1,0.5]];portConstraint=eastwest;rotatable=0;whiteSpace=wrap;html=1;" vertex="1" parent="1">
          <mxGeometry x="160" y="260" width="140" height="30" as="geometry" />
        </mxCell>
        <mxCell id="iKP9hEX6rpxnVARJasha-28" value="Contact information&amp;nbsp;" style="text;strokeColor=default;fillColor=none;align=left;verticalAlign=middle;spacingLeft=4;spacingRight=4;overflow=hidden;points=[[0,0.5],[1,0.5]];portConstraint=eastwest;rotatable=0;whiteSpace=wrap;html=1;" vertex="1" parent="1">
          <mxGeometry x="274" y="420" width="140" height="30" as="geometry" />
        </mxCell>
        <mxCell id="iKP9hEX6rpxnVARJasha-31" style="edgeStyle=orthogonalEdgeStyle;rounded=0;orthogonalLoop=1;jettySize=auto;html=1;exitX=0;exitY=0.5;exitDx=0;exitDy=0;entryX=0.167;entryY=-0.014;entryDx=0;entryDy=0;entryPerimeter=0;" edge="1" parent="1" source="iKP9hEX6rpxnVARJasha-19" target="iKP9hEX6rpxnVARJasha-11">
          <mxGeometry relative="1" as="geometry" />
        </mxCell>
      </root>
    </mxGraphModel>
  </diagram>
  <diagram name="Logical Model" id="6UxYmFW7T_WzoGBSyFh2">
    <mxGraphModel dx="794" dy="1581" grid="1" gridSize="10" guides="1" tooltips="1" connect="1" arrows="1" fold="1" page="1" pageScale="1" pageWidth="827" pageHeight="1169" math="0" shadow="0">
      <root>
        <mxCell id="c4jTH9dZQF4V7bdr0cFA-0" />
        <mxCell id="c4jTH9dZQF4V7bdr0cFA-1" parent="c4jTH9dZQF4V7bdr0cFA-0" />
        <mxCell id="c4jTH9dZQF4V7bdr0cFA-2" value="BOOK" style="swimlane;fontStyle=0;childLayout=stackLayout;horizontal=1;startSize=30;horizontalStack=0;resizeParent=1;resizeParentMax=0;resizeLast=0;collapsible=1;marginBottom=0;whiteSpace=wrap;html=1;fillColor=#f5f5f5;strokeColor=#666666;fontColor=#333333;" vertex="1" parent="c4jTH9dZQF4V7bdr0cFA-1">
          <mxGeometry x="160" y="50" width="180" height="90" as="geometry">
            <mxRectangle x="160" y="30" width="80" height="30" as="alternateBounds" />
          </mxGeometry>
        </mxCell>
        <mxCell id="c4jTH9dZQF4V7bdr0cFA-3" value="ISBN (VARCHAR(13), PK)" style="text;strokeColor=default;fillColor=none;align=left;verticalAlign=middle;spacingLeft=4;spacingRight=4;overflow=hidden;points=[[0,0.5],[1,0.5]];portConstraint=eastwest;rotatable=0;whiteSpace=wrap;html=1;" vertex="1" parent="c4jTH9dZQF4V7bdr0cFA-2">
          <mxGeometry y="30" width="180" height="30" as="geometry" />
        </mxCell>
        <mxCell id="c4jTH9dZQF4V7bdr0cFA-4" value="Book ID (INT,PK)" style="text;strokeColor=default;fillColor=none;align=left;verticalAlign=middle;spacingLeft=4;spacingRight=4;overflow=hidden;points=[[0,0.5],[1,0.5]];portConstraint=eastwest;rotatable=0;whiteSpace=wrap;html=1;" vertex="1" parent="c4jTH9dZQF4V7bdr0cFA-2">
          <mxGeometry y="60" width="180" height="30" as="geometry" />
        </mxCell>
        <mxCell id="c4jTH9dZQF4V7bdr0cFA-5" value="Author (VARCHAR(50))" style="text;strokeColor=default;fillColor=none;align=left;verticalAlign=middle;spacingLeft=4;spacingRight=4;overflow=hidden;points=[[0,0.5],[1,0.5]];portConstraint=eastwest;rotatable=0;whiteSpace=wrap;html=1;" vertex="1" parent="c4jTH9dZQF4V7bdr0cFA-1">
          <mxGeometry x="160" y="140" width="180" height="30" as="geometry" />
        </mxCell>
        <mxCell id="c4jTH9dZQF4V7bdr0cFA-6" style="edgeStyle=orthogonalEdgeStyle;rounded=0;orthogonalLoop=1;jettySize=auto;html=1;exitX=1;exitY=0.5;exitDx=0;exitDy=0;entryX=0;entryY=0.5;entryDx=0;entryDy=0;" edge="1" parent="c4jTH9dZQF4V7bdr0cFA-1" source="c4jTH9dZQF4V7bdr0cFA-7" target="c4jTH9dZQF4V7bdr0cFA-12">
          <mxGeometry relative="1" as="geometry" />
        </mxCell>
        <mxCell id="c4jTH9dZQF4V7bdr0cFA-7" value="publisher ID (INT ,FK)" style="text;strokeColor=default;fillColor=none;align=left;verticalAlign=middle;spacingLeft=4;spacingRight=4;overflow=hidden;points=[[0,0.5],[1,0.5]];portConstraint=eastwest;rotatable=0;whiteSpace=wrap;html=1;" vertex="1" parent="c4jTH9dZQF4V7bdr0cFA-1">
          <mxGeometry x="160" y="170" width="180" height="30" as="geometry" />
        </mxCell>
        <mxCell id="c4jTH9dZQF4V7bdr0cFA-8" value="Publication year&amp;nbsp; (YEAR)" style="text;strokeColor=default;fillColor=none;align=left;verticalAlign=middle;spacingLeft=4;spacingRight=4;overflow=hidden;points=[[0,0.5],[1,0.5]];portConstraint=eastwest;rotatable=0;whiteSpace=wrap;html=1;" vertex="1" parent="c4jTH9dZQF4V7bdr0cFA-1">
          <mxGeometry x="160" y="200" width="180" height="30" as="geometry" />
        </mxCell>
        <mxCell id="c4jTH9dZQF4V7bdr0cFA-9" value="Gener&amp;nbsp; &amp;nbsp;(VARCHAR(50))" style="text;strokeColor=default;fillColor=none;align=left;verticalAlign=middle;spacingLeft=4;spacingRight=4;overflow=hidden;points=[[0,0.5],[1,0.5]];portConstraint=eastwest;rotatable=0;whiteSpace=wrap;html=1;" vertex="1" parent="c4jTH9dZQF4V7bdr0cFA-1">
          <mxGeometry x="160" y="230" width="180" height="30" as="geometry" />
        </mxCell>
        <mxCell id="c4jTH9dZQF4V7bdr0cFA-10" value="LOANS" style="swimlane;fontStyle=0;childLayout=stackLayout;horizontal=1;startSize=30;horizontalStack=0;resizeParent=1;resizeParentMax=0;resizeLast=0;collapsible=1;marginBottom=0;whiteSpace=wrap;html=1;fillColor=#f5f5f5;fontColor=#333333;strokeColor=#666666;" vertex="1" parent="c4jTH9dZQF4V7bdr0cFA-1">
          <mxGeometry x="580" y="270" width="170" height="120" as="geometry">
            <mxRectangle x="560" y="30" width="80" height="30" as="alternateBounds" />
          </mxGeometry>
        </mxCell>
        <mxCell id="c4jTH9dZQF4V7bdr0cFA-11" value="Loan ID&amp;nbsp; (INT, PK)" style="text;strokeColor=default;fillColor=none;align=left;verticalAlign=middle;spacingLeft=4;spacingRight=4;overflow=hidden;points=[[0,0.5],[1,0.5]];portConstraint=eastwest;rotatable=0;whiteSpace=wrap;html=1;" vertex="1" parent="c4jTH9dZQF4V7bdr0cFA-10">
          <mxGeometry y="30" width="170" height="30" as="geometry" />
        </mxCell>
        <mxCell id="c4jTH9dZQF4V7bdr0cFA-12" value="Member ID (INT ,FK)" style="text;strokeColor=default;fillColor=none;align=left;verticalAlign=middle;spacingLeft=4;spacingRight=4;overflow=hidden;points=[[0,0.5],[1,0.5]];portConstraint=eastwest;rotatable=0;whiteSpace=wrap;html=1;" vertex="1" parent="c4jTH9dZQF4V7bdr0cFA-10">
          <mxGeometry y="60" width="170" height="30" as="geometry" />
        </mxCell>
        <mxCell id="c4jTH9dZQF4V7bdr0cFA-13" value="Book ID (INT, FK)" style="text;strokeColor=default;fillColor=none;align=left;verticalAlign=middle;spacingLeft=4;spacingRight=4;overflow=hidden;points=[[0,0.5],[1,0.5]];portConstraint=eastwest;rotatable=0;whiteSpace=wrap;html=1;" vertex="1" parent="c4jTH9dZQF4V7bdr0cFA-10">
          <mxGeometry y="90" width="170" height="30" as="geometry" />
        </mxCell>
        <mxCell id="c4jTH9dZQF4V7bdr0cFA-14" value="Loan date&amp;nbsp; (DATE)" style="text;strokeColor=default;fillColor=none;align=left;verticalAlign=middle;spacingLeft=4;spacingRight=4;overflow=hidden;points=[[0,0.5],[1,0.5]];portConstraint=eastwest;rotatable=0;whiteSpace=wrap;html=1;" vertex="1" parent="c4jTH9dZQF4V7bdr0cFA-1">
          <mxGeometry x="580" y="390" width="170" height="30" as="geometry" />
        </mxCell>
        <mxCell id="c4jTH9dZQF4V7bdr0cFA-15" value="Due date&amp;nbsp; (DATE)" style="text;strokeColor=default;fillColor=none;align=left;verticalAlign=middle;spacingLeft=4;spacingRight=4;overflow=hidden;points=[[0,0.5],[1,0.5]];portConstraint=eastwest;rotatable=0;whiteSpace=wrap;html=1;" vertex="1" parent="c4jTH9dZQF4V7bdr0cFA-1">
          <mxGeometry x="580" y="420" width="170" height="30" as="geometry" />
        </mxCell>
        <mxCell id="c4jTH9dZQF4V7bdr0cFA-16" value="MEMBER" style="swimlane;fontStyle=0;childLayout=stackLayout;horizontal=1;startSize=30;horizontalStack=0;resizeParent=1;resizeParentMax=0;resizeLast=0;collapsible=1;marginBottom=0;whiteSpace=wrap;html=1;fillColor=#f5f5f5;fontColor=#333333;strokeColor=#666666;" vertex="1" parent="c4jTH9dZQF4V7bdr0cFA-1">
          <mxGeometry x="610" y="-10" width="190" height="150" as="geometry">
            <mxRectangle x="230" y="290" width="90" height="30" as="alternateBounds" />
          </mxGeometry>
        </mxCell>
        <mxCell id="c4jTH9dZQF4V7bdr0cFA-17" value="Adress (VARCHAR(100))" style="text;strokeColor=default;fillColor=none;align=left;verticalAlign=middle;spacingLeft=4;spacingRight=4;overflow=hidden;points=[[0,0.5],[1,0.5]];portConstraint=eastwest;rotatable=0;whiteSpace=wrap;html=1;" vertex="1" parent="c4jTH9dZQF4V7bdr0cFA-16">
          <mxGeometry y="30" width="190" height="30" as="geometry" />
        </mxCell>
        <mxCell id="c4jTH9dZQF4V7bdr0cFA-18" value="Member ID(INT ,PK)" style="text;strokeColor=default;fillColor=none;align=left;verticalAlign=middle;spacingLeft=4;spacingRight=4;overflow=hidden;points=[[0,0.5],[1,0.5]];portConstraint=eastwest;rotatable=0;whiteSpace=wrap;html=1;" vertex="1" parent="c4jTH9dZQF4V7bdr0cFA-16">
          <mxGeometry y="60" width="190" height="30" as="geometry" />
        </mxCell>
        <mxCell id="c4jTH9dZQF4V7bdr0cFA-19" value="Name (VARCHAR(50))" style="text;strokeColor=default;fillColor=none;align=left;verticalAlign=middle;spacingLeft=4;spacingRight=4;overflow=hidden;points=[[0,0.5],[1,0.5]];portConstraint=eastwest;rotatable=0;whiteSpace=wrap;html=1;" vertex="1" parent="c4jTH9dZQF4V7bdr0cFA-16">
          <mxGeometry y="90" width="190" height="30" as="geometry" />
        </mxCell>
        <mxCell id="c4jTH9dZQF4V7bdr0cFA-20" value="Email (VARCHAR(50), Unique)" style="text;strokeColor=default;fillColor=none;align=left;verticalAlign=middle;spacingLeft=4;spacingRight=4;overflow=hidden;points=[[0,0.5],[1,0.5]];portConstraint=eastwest;rotatable=0;whiteSpace=wrap;html=1;" vertex="1" parent="c4jTH9dZQF4V7bdr0cFA-16">
          <mxGeometry y="120" width="190" height="30" as="geometry" />
        </mxCell>
        <mxCell id="c4jTH9dZQF4V7bdr0cFA-21" value="Phone (VARCHAR(15))" style="text;strokeColor=default;fillColor=none;align=left;verticalAlign=middle;spacingLeft=4;spacingRight=4;overflow=hidden;points=[[0,0.5],[1,0.5]];portConstraint=eastwest;rotatable=0;whiteSpace=wrap;html=1;" vertex="1" parent="c4jTH9dZQF4V7bdr0cFA-1">
          <mxGeometry x="610" y="140" width="190" height="30" as="geometry" />
        </mxCell>
        <mxCell id="c4jTH9dZQF4V7bdr0cFA-22" value="PUBLISHER&amp;nbsp;" style="swimlane;fontStyle=0;childLayout=stackLayout;horizontal=1;startSize=30;horizontalStack=0;resizeParent=1;resizeParentMax=0;resizeLast=0;collapsible=1;marginBottom=0;whiteSpace=wrap;html=1;fillColor=#f5f5f5;fontColor=#333333;strokeColor=#666666;" vertex="1" parent="c4jTH9dZQF4V7bdr0cFA-1">
          <mxGeometry x="240" y="300" width="210" height="120" as="geometry">
            <mxRectangle x="540" y="290" width="110" height="30" as="alternateBounds" />
          </mxGeometry>
        </mxCell>
        <mxCell id="c4jTH9dZQF4V7bdr0cFA-24" value="Adress&amp;nbsp; (VARCHAR(100))" style="text;strokeColor=default;fillColor=none;align=left;verticalAlign=middle;spacingLeft=4;spacingRight=4;overflow=hidden;points=[[0,0.5],[1,0.5]];portConstraint=eastwest;rotatable=0;whiteSpace=wrap;html=1;" vertex="1" parent="c4jTH9dZQF4V7bdr0cFA-22">
          <mxGeometry y="30" width="210" height="30" as="geometry" />
        </mxCell>
        <mxCell id="c4jTH9dZQF4V7bdr0cFA-25" value="Publisher ID&amp;nbsp; (INT, PK)" style="text;strokeColor=default;fillColor=none;align=left;verticalAlign=middle;spacingLeft=4;spacingRight=4;overflow=hidden;points=[[0,0.5],[1,0.5]];portConstraint=eastwest;rotatable=0;whiteSpace=wrap;html=1;" vertex="1" parent="c4jTH9dZQF4V7bdr0cFA-22">
          <mxGeometry y="60" width="210" height="30" as="geometry" />
        </mxCell>
        <mxCell id="c4jTH9dZQF4V7bdr0cFA-26" value="Name (VARCHAR(50))" style="text;strokeColor=default;fillColor=none;align=left;verticalAlign=middle;spacingLeft=4;spacingRight=4;overflow=hidden;points=[[0,0.5],[1,0.5]];portConstraint=eastwest;rotatable=0;whiteSpace=wrap;html=1;" vertex="1" parent="c4jTH9dZQF4V7bdr0cFA-22">
          <mxGeometry y="90" width="210" height="30" as="geometry" />
        </mxCell>
        <mxCell id="c4jTH9dZQF4V7bdr0cFA-27" value="Title (VARCHAR(100))" style="text;strokeColor=default;fillColor=none;align=left;verticalAlign=middle;spacingLeft=4;spacingRight=4;overflow=hidden;points=[[0,0.5],[1,0.5]];portConstraint=eastwest;rotatable=0;whiteSpace=wrap;html=1;" vertex="1" parent="c4jTH9dZQF4V7bdr0cFA-1">
          <mxGeometry x="160" y="260" width="180" height="30" as="geometry" />
        </mxCell>
        <mxCell id="c4jTH9dZQF4V7bdr0cFA-28" value="Contact information (VARCHAR(50))" style="text;strokeColor=default;fillColor=none;align=left;verticalAlign=middle;spacingLeft=4;spacingRight=4;overflow=hidden;points=[[0,0.5],[1,0.5]];portConstraint=eastwest;rotatable=0;whiteSpace=wrap;html=1;" vertex="1" parent="c4jTH9dZQF4V7bdr0cFA-1">
          <mxGeometry x="240" y="420" width="210" height="30" as="geometry" />
        </mxCell>
        <mxCell id="c4jTH9dZQF4V7bdr0cFA-29" style="edgeStyle=orthogonalEdgeStyle;rounded=0;orthogonalLoop=1;jettySize=auto;html=1;exitX=0;exitY=0.5;exitDx=0;exitDy=0;entryX=0.167;entryY=-0.014;entryDx=0;entryDy=0;entryPerimeter=0;" edge="1" parent="c4jTH9dZQF4V7bdr0cFA-1" source="c4jTH9dZQF4V7bdr0cFA-18" target="c4jTH9dZQF4V7bdr0cFA-10">
          <mxGeometry relative="1" as="geometry" />
        </mxCell>
        <mxCell id="c4jTH9dZQF4V7bdr0cFA-23" style="edgeStyle=orthogonalEdgeStyle;rounded=0;orthogonalLoop=1;jettySize=auto;html=1;exitX=0;exitY=0.5;exitDx=0;exitDy=0;entryX=0;entryY=0.5;entryDx=0;entryDy=0;" edge="1" parent="c4jTH9dZQF4V7bdr0cFA-1" source="c4jTH9dZQF4V7bdr0cFA-24" target="c4jTH9dZQF4V7bdr0cFA-4">
          <mxGeometry relative="1" as="geometry">
            <mxPoint x="140" y="290" as="targetPoint" />
          </mxGeometry>
        </mxCell>
      </root>
    </mxGraphModel>
  </diagram>
</mxfile>
